<svg width="32" height="32" viewBox="0 0 32 32" fill="none" xmlns="http://www.w3.org/2000/svg">
<path d="M11.7754 6.54753C11.7754 5.94808 11.7013 5.30169 11.8031 4.70687C11.9746 3.70419 12.749 2.79677 13.4393 2.04044C14.2461 1.15645 15.6677 0.459152 16.5253 1.58027C17.118 2.35513 17.3676 2.81539 17.3676 3.7046C17.3676 3.9921 17.3049 4.28534 17.6713 4.02608C18.6105 3.3615 19.4293 2.57028 20.4674 2.02153C21.4129 1.52171 23.4215 0.838386 24.0505 2.07196C24.3729 2.70442 24.2024 3.60948 24.2024 4.29083C24.2024 5.30054 23.6299 5.91462 22.9528 6.6673C22.3216 7.36889 21.5966 7.99704 20.8195 8.56469C20.6011 8.7242 21.2166 8.69077 21.2406 8.69077C21.943 8.69077 22.6263 8.47363 23.3187 8.38819C24.5018 8.24221 25.8623 8.02819 26.9225 8.64664C27.7744 9.14364 28.3427 9.75187 28.6899 10.6323C29.012 11.4493 29.2822 13.0889 28.4275 13.6958C27.3542 14.458 26.085 14.4901 24.7823 14.4901C23.4015 14.4901 22.0207 14.4901 20.64 14.4901C19.6915 14.4901 21.5107 14.6171 21.8067 14.7549C23.9337 15.7449 25.55 17.3919 26.4944 19.3628C26.6931 19.7775 26.6459 20.6838 26.4116 21.0459C25.6387 22.2401 23.6927 22.3192 22.3936 22.3192C21.5314 22.3192 20.8308 22.3291 20.1015 21.8653C19.2975 21.3541 18.8113 20.4994 18.1132 19.8797C17.5057 19.3405 16.8616 18.6852 16.401 18.0327C16.1947 17.7404 16.1596 17.6008 15.8694 17.8436C15.4068 18.2308 15.1084 18.7786 14.6474 19.1863C13.9559 19.798 13.2517 20.3042 12.5211 20.8694C11.0825 21.9822 9.01478 23 7.06703 23C5.05463 23 6.00515 20.4029 6.80468 19.596C7.44803 18.9468 7.87535 18.2263 8.60659 17.6167C8.80278 17.4531 9.21621 17.3292 9.33839 17.1061C9.38369 17.0234 9.13591 17.0998 9.03462 17.0998C8.67332 17.0998 8.31202 17.0998 7.95072 17.0998C6.64464 17.0998 5.53501 17.121 4.43667 16.419C3.99754 16.1383 1.48121 14.872 2.09626 14.2064C3.03341 13.1923 4.28205 12.4238 5.36868 11.5526C6.0685 10.9916 7.10206 10.5981 8.01976 10.4306C8.13033 10.4104 8.83572 10.4546 8.48922 10.2919C7.71948 9.93044 6.86431 9.73608 6.07978 9.39677C5.12561 8.98409 4.41039 8.59033 3.67034 7.8839C3.13399 7.37192 1.89646 5.9745 2.55192 5.23638C3.10381 4.61489 3.93599 4.0343 4.77495 3.8811C5.65533 3.72033 7.08542 3.64754 7.93001 3.99456C8.75896 4.33516 9.82363 4.81583 10.4775 5.41288C10.8985 5.79728 10.9843 6.39253 11.4026 6.77446" stroke="black" stroke-width="1.5" stroke-linecap="round" stroke-linejoin="round"/>
<path d="M14.0812 12.9861C13.9533 12.8103 13.2844 11.4861 13.9006 11.4861C14.4553 11.4861 15.0139 11.3611 15.5812 11.3611C15.9066 11.3611 16.2445 11.5648 16.3242 11.9236C16.5168 12.7902 15.0678 12.9734 14.4839 12.9861C13.7447 13.0021 13.4562 12.7336 13.4562 11.9861C13.4562 11.6843 13.4328 11.5207 13.7201 11.3611C14.0941 11.1532 15.5365 11.0241 15.8312 11.3889C16.421 12.1192 15.8735 12.2881 15.2131 12.3541C15.0641 12.369 14.6674 12.4282 14.5256 12.3472C14.2456 12.1872 14.5236 11.8661 14.7339 11.8611C15.737 11.8372 16.001 12.3604 14.7756 12.4861C14.4753 12.5169 13.5847 12.8285 13.4631 12.4027C13.3857 12.132 13.1466 11.2724 13.4562 11.0833C14.2436 10.6021 15.3597 10.9765 15.4492 11.9166C15.4957 12.4052 15.2436 12.5511 14.7478 12.5972C13.7045 12.6942 12.9808 12.6963 12.8589 11.5139C12.7882 10.8272 12.6017 9.50446 12.9562 8.88886C13.226 8.42017 14.5339 8.56784 14.9423 8.63886C16.5701 8.92196 16.9294 11.1593 16.8312 12.4861C16.7741 13.2562 15.5675 13.2413 15.2062 12.7083C14.9122 12.2747 14.6948 11.5258 14.8451 11C14.9327 10.6932 15.8865 10.723 16.1367 10.743C16.9654 10.8093 16.9044 12.4442 16.6923 12.9722C16.3487 13.8273 14.9234 14.2632 14.0812 14.0555C13.087 13.8104 13.2062 12.5526 13.2062 11.7639C13.2062 11.1101 13.2747 10.8157 13.9701 10.6805C14.9901 10.4822 15.7906 10.5631 16.1228 11.6666C16.3099 12.288 16.2434 12.9053 15.5256 13.0555C14.3346 13.3048 13.2951 12.6754 13.0464 11.4514C12.9536 10.9941 12.6283 9.21565 13.2201 8.94441C13.8028 8.67733 15.1801 8.74872 15.7339 8.99997C16.7829 9.4758 17.3431 10.7663 17.4284 11.8472C17.5273 13.1 15.9163 13.2842 14.9701 13.4166C14.5258 13.4788 13.7155 13.6995 13.5187 13.1527C13.4023 12.8297 13.1076 11.8102 13.4145 11.5139C13.8919 11.0529 15.2414 11.1983 15.8312 11.2639C16.8494 11.377 17.476 12.3103 17.5673 13.2916C17.622 13.8801 17.7105 14.6026 17.0464 14.8472C15.6898 15.347 13.9832 14.4635 13.3867 13.2361C13.0316 12.5054 12.935 11.6656 12.9562 10.8611C12.9784 10.0149 14.217 10.1111 14.8103 10.1111C15.2733 10.1111 16.2574 9.91258 16.5742 10.3402C17.4334 11.5002 16.7247 12.7424 15.6506 13.3889C14.5641 14.0428 13.1632 14.6594 11.8589 14.6111C11.5417 14.5993 11.7062 13.4037 11.7062 13.1736C11.7062 12.1634 12.1527 11.3837 13.1992 11.1875C13.707 11.0923 14.7362 10.9241 15.1089 11.4166C15.4562 11.8755 15.7306 13.2491 15.2478 13.6805C14.6917 14.1775 12.7947 14.1747 12.2895 13.6389C11.092 12.3688 11.1969 9.16446 13.3589 9.11108C14.1144 9.09242 14.9518 8.98781 15.5812 9.48608C16.3158 10.0676 16.7062 11.075 16.7062 11.993C16.7062 13.0484 14.8503 13.5195 14.3312 12.6111" stroke="black" stroke-width="1.5" stroke-linecap="round" stroke-linejoin="round"/>
<path d="M15.9861 17.5C15.9861 18.31 15.9682 21.4375 15.8715 22.2431C15.7733 23.0617 15.6875 23.8831 15.6875 24.7083C15.6875 25.2389 15.6218 25.8134 15.7188 26.3368C15.7841 26.6895 15.9221 27.0228 15.9861 27.375C16.0956 27.9773 16.294 28.5348 16.4861 29.1111C16.5887 29.4187 16.6416 29.7501 16.7153 30.066C16.7518 30.2223 16.7323 30.6787 16.875 30.75" stroke="black" stroke-width="1.5" stroke-linecap="round" stroke-linejoin="round"/>
</svg>
