<svg width="16" height="16" viewBox="0 0 16 16" fill="none" xmlns="http://www.w3.org/2000/svg">
<g clip-path="url(#clip0_1_12)">
<path d="M6 3.17157L5.71716 3.45441L6.4 4.13726V3.17157H6ZM5.87869 3.05026L6.16153 2.76741L6.16153 2.76741L5.87869 3.05026ZM3.05026 5.87868L2.76742 6.16153L2.76742 6.16153L3.05026 5.87868ZM3.17158 6V6.4H4.13726L3.45442 5.71716L3.17158 6ZM3.17159 10L3.45443 10.2828L4.13728 9.6H3.17159V10ZM3.05026 10.1213L2.76742 9.83848L2.76742 9.83848L3.05026 10.1213ZM3.05026 12.9498L2.76742 13.2326L2.76742 13.2326L3.05026 12.9498ZM5.87869 12.9498L6.16153 13.2326L6.16153 13.2326L5.87869 12.9498ZM6 12.8284H6.4V11.8628L5.71716 12.5456L6 12.8284ZM10 12.8284L10.2828 12.5456L9.6 11.8627V12.8284H10ZM12.8284 10V9.6H11.8627L12.5456 10.2828L12.8284 10ZM12.8284 6L12.5456 5.71716L11.8628 6.4H12.8284V6ZM10.1213 3.05026L10.4042 3.3331L10.4042 3.3331L10.1213 3.05026ZM10 3.17159H9.6V4.13728L10.2828 3.45443L10 3.17159ZM6.4 3C6.4 2.11634 7.11634 1.4 8 1.4V0.6C6.67452 0.6 5.6 1.67452 5.6 3H6.4ZM6.4 3.17157V3H5.6V3.17157H6.4ZM5.59584 3.3331L5.71716 3.45441L6.28284 2.88873L6.16153 2.76741L5.59584 3.3331ZM3.3331 3.3331C3.95794 2.70826 4.97101 2.70826 5.59584 3.3331L6.16153 2.76741C5.22427 1.83016 3.70468 1.83016 2.76742 2.76741L3.3331 3.3331ZM3.3331 5.59584C2.70826 4.971 2.70826 3.95794 3.3331 3.3331L2.76742 2.76741C1.83016 3.70467 1.83016 5.22427 2.76742 6.16153L3.3331 5.59584ZM3.45442 5.71716L3.3331 5.59584L2.76742 6.16153L2.88873 6.28284L3.45442 5.71716ZM3 6.4H3.17158V5.6H3V6.4ZM1.4 8C1.4 7.11634 2.11634 6.4 3 6.4V5.6C1.67452 5.6 0.6 6.67452 0.6 8H1.4ZM3 9.6C2.11634 9.6 1.4 8.88365 1.4 8H0.6C0.6 9.32548 1.67452 10.4 3 10.4V9.6ZM3.17159 9.6H3V10.4H3.17159V9.6ZM3.33311 10.4042L3.45443 10.2828L2.88875 9.71716L2.76742 9.83848L3.33311 10.4042ZM3.33311 12.6669C2.70827 12.0421 2.70827 11.029 3.33311 10.4042L2.76742 9.83848C1.83016 10.7757 1.83016 12.2953 2.76742 13.2326L3.33311 12.6669ZM5.59585 12.6669C4.97101 13.2918 3.95795 13.2918 3.33311 12.6669L2.76742 13.2326C3.70468 14.1699 5.22428 14.1699 6.16153 13.2326L5.59585 12.6669ZM5.71716 12.5456L5.59585 12.6669L6.16153 13.2326L6.28284 13.1113L5.71716 12.5456ZM6.4 13V12.8284H5.6V13H6.4ZM8 14.6C7.11634 14.6 6.4 13.8837 6.4 13H5.6C5.6 14.3255 6.67452 15.4 8 15.4V14.6ZM9.6 13C9.6 13.8837 8.88366 14.6 8 14.6V15.4C9.32548 15.4 10.4 14.3255 10.4 13H9.6ZM9.6 12.8284V13H10.4V12.8284H9.6ZM10.4042 12.6669L10.2828 12.5456L9.71716 13.1113L9.83848 13.2326L10.4042 12.6669ZM12.6669 12.6669C12.0421 13.2917 11.029 13.2917 10.4042 12.6669L9.83848 13.2326C10.7757 14.1699 12.2953 14.1699 13.2326 13.2326L12.6669 12.6669ZM12.6669 10.4042C13.2918 11.029 13.2918 12.0421 12.6669 12.6669L13.2326 13.2326C14.1699 12.2953 14.1699 10.7757 13.2326 9.83848L12.6669 10.4042ZM12.5456 10.2828L12.6669 10.4042L13.2326 9.83848L13.1113 9.71716L12.5456 10.2828ZM13 9.6H12.8284V10.4H13V9.6ZM14.6 8C14.6 8.88366 13.8837 9.6 13 9.6V10.4C14.3255 10.4 15.4 9.32548 15.4 8H14.6ZM13 6.4C13.8837 6.4 14.6 7.11634 14.6 8H15.4C15.4 6.67452 14.3255 5.6 13 5.6V6.4ZM12.8284 6.4H13V5.6H12.8284V6.4ZM12.6669 5.59584L12.5456 5.71716L13.1113 6.28284L13.2326 6.16153L12.6669 5.59584ZM12.6669 3.3331C13.2918 3.95794 13.2918 4.971 12.6669 5.59584L13.2326 6.16153C14.1699 5.22427 14.1699 3.70467 13.2326 2.76742L12.6669 3.3331ZM10.4042 3.3331C11.029 2.70826 12.0421 2.70826 12.6669 3.3331L13.2326 2.76742C12.2953 1.83016 10.7757 1.83016 9.83849 2.76742L10.4042 3.3331ZM10.2828 3.45443L10.4042 3.3331L9.83849 2.76742L9.71716 2.88875L10.2828 3.45443ZM9.6 3V3.17159H10.4V3H9.6ZM8 1.4C8.88366 1.4 9.6 2.11634 9.6 3H10.4C10.4 1.67452 9.32548 0.6 8 0.6V1.4Z" fill="black"/>
<circle cx="8" cy="8" r="2" stroke="black" stroke-width="0.9"/>
</g>
<defs>
<clipPath id="clip0_1_12">
<rect width="16" height="16" fill="white"/>
</clipPath>
</defs>
</svg>