<svg width="400" height="400" viewBox="0 0 400 400" fill="none" xmlns="http://www.w3.org/2000/svg">
<g clip-path="url(#clip0_1040_6973)">
<rect width="400" height="1" fill="black"/>
<rect y="3" width="400" height="1" fill="black"/>
<rect y="6" width="400" height="1" fill="black"/>
<rect y="9" width="400" height="1" fill="black"/>
<rect y="12" width="400" height="1" fill="black"/>
<rect y="15" width="400" height="1" fill="black"/>
<rect y="18" width="400" height="1" fill="black"/>
<rect y="21" width="400" height="1" fill="black"/>
<rect y="24" width="400" height="1" fill="black"/>
<rect y="27" width="400" height="1" fill="black"/>
<rect y="30" width="400" height="1" fill="black"/>
<rect y="33" width="400" height="1" fill="black"/>
<rect y="36" width="400" height="1" fill="black"/>
<rect y="39" width="400" height="1" fill="black"/>
<rect y="42" width="400" height="1" fill="black"/>
<rect y="45" width="400" height="1" fill="black"/>
<rect y="48" width="400" height="1" fill="black"/>
<rect y="51" width="400" height="1" fill="black"/>
<rect y="54" width="400" height="1" fill="black"/>
<rect y="57" width="400" height="1" fill="black"/>
<rect y="60" width="400" height="1" fill="black"/>
<rect y="63" width="400" height="1" fill="black"/>
<rect y="66" width="400" height="1" fill="black"/>
<rect y="69" width="400" height="1" fill="black"/>
<rect y="72" width="400" height="1" fill="black"/>
<rect y="75" width="400" height="1" fill="black"/>
<rect y="78" width="400" height="1" fill="black"/>
<rect y="81" width="400" height="1" fill="black"/>
<rect y="84" width="400" height="1" fill="black"/>
<rect y="87" width="400" height="1" fill="black"/>
<rect y="90" width="400" height="1" fill="black"/>
<rect y="93" width="400" height="1" fill="black"/>
<rect y="96" width="400" height="1" fill="black"/>
<rect y="99" width="400" height="1" fill="black"/>
<rect y="102" width="400" height="1" fill="black"/>
<rect y="105" width="400" height="1" fill="black"/>
<rect y="108" width="400" height="1" fill="black"/>
<rect y="111" width="400" height="1" fill="black"/>
<rect y="114" width="400" height="1" fill="black"/>
<rect y="117" width="400" height="1" fill="black"/>
<rect y="120" width="400" height="1" fill="black"/>
<rect y="123" width="400" height="1" fill="black"/>
<rect y="126" width="400" height="1" fill="black"/>
<rect y="129" width="400" height="1" fill="black"/>
<rect y="132" width="400" height="1" fill="black"/>
<rect y="135" width="400" height="1" fill="black"/>
<rect y="138" width="400" height="1" fill="black"/>
<rect y="141" width="400" height="1" fill="black"/>
<rect y="144" width="400" height="1" fill="black"/>
<rect y="147" width="400" height="1" fill="black"/>
<rect y="150" width="400" height="1" fill="black"/>
<rect y="153" width="400" height="1" fill="black"/>
<rect y="156" width="400" height="1" fill="black"/>
<rect y="159" width="400" height="1" fill="black"/>
<rect y="162" width="400" height="1" fill="black"/>
<rect y="165" width="400" height="1" fill="black"/>
<rect y="168" width="400" height="1" fill="black"/>
<rect y="171" width="400" height="1" fill="black"/>
<rect y="174" width="400" height="1" fill="black"/>
<rect y="177" width="400" height="1" fill="black"/>
<rect y="180" width="400" height="1" fill="black"/>
<rect y="183" width="400" height="1" fill="black"/>
<rect y="186" width="400" height="1" fill="black"/>
<rect y="189" width="400" height="1" fill="black"/>
<rect y="192" width="400" height="1" fill="black"/>
<rect y="195" width="400" height="1" fill="black"/>
<rect y="198" width="400" height="1" fill="black"/>
<rect y="201" width="400" height="1" fill="black"/>
<rect y="204" width="400" height="1" fill="black"/>
<rect y="207" width="400" height="1" fill="black"/>
<rect y="210" width="400" height="1" fill="black"/>
<rect y="213" width="400" height="1" fill="black"/>
<rect y="216" width="400" height="1" fill="black"/>
<rect y="219" width="400" height="1" fill="black"/>
<rect y="222" width="400" height="1" fill="black"/>
<rect y="225" width="400" height="1" fill="black"/>
<rect y="228" width="400" height="1" fill="black"/>
<rect y="231" width="400" height="1" fill="black"/>
<rect y="234" width="400" height="1" fill="black"/>
<rect y="237" width="400" height="1" fill="black"/>
<rect y="240" width="400" height="1" fill="black"/>
<rect y="243" width="400" height="1" fill="black"/>
<rect y="246" width="400" height="1" fill="black"/>
<rect y="249" width="400" height="1" fill="black"/>
<rect y="252" width="400" height="1" fill="black"/>
<rect y="255" width="400" height="1" fill="black"/>
<rect y="258" width="400" height="1" fill="black"/>
<rect y="261" width="400" height="1" fill="black"/>
<rect y="264" width="400" height="1" fill="black"/>
<rect y="267" width="400" height="1" fill="black"/>
<rect y="270" width="400" height="1" fill="black"/>
<rect y="273" width="400" height="1" fill="black"/>
<rect y="276" width="400" height="1" fill="black"/>
<rect y="279" width="400" height="1" fill="black"/>
<rect y="282" width="400" height="1" fill="black"/>
<rect y="285" width="400" height="1" fill="black"/>
<rect y="288" width="400" height="1" fill="black"/>
<rect y="291" width="400" height="1" fill="black"/>
<rect y="294" width="400" height="1" fill="black"/>
<rect y="297" width="400" height="1" fill="black"/>
<rect y="300" width="400" height="1" fill="black"/>
<rect y="303" width="400" height="1" fill="black"/>
<rect y="306" width="400" height="1" fill="black"/>
<rect y="309" width="400" height="1" fill="black"/>
<rect y="312" width="400" height="1" fill="black"/>
<rect y="315" width="400" height="1" fill="black"/>
<rect y="318" width="400" height="1" fill="black"/>
<rect y="321" width="400" height="1" fill="black"/>
<rect y="324" width="400" height="1" fill="black"/>
<rect y="327" width="400" height="1" fill="black"/>
<rect y="330" width="400" height="1" fill="black"/>
<rect y="333" width="400" height="1" fill="black"/>
<rect y="336" width="400" height="1" fill="black"/>
<rect y="339" width="400" height="1" fill="black"/>
<rect y="342" width="400" height="1" fill="black"/>
<rect y="345" width="400" height="1" fill="black"/>
<rect y="348" width="400" height="1" fill="black"/>
<rect y="351" width="400" height="1" fill="black"/>
<rect y="354" width="400" height="1" fill="black"/>
<rect y="357" width="400" height="1" fill="black"/>
<rect y="360" width="400" height="1" fill="black"/>
<rect y="363" width="400" height="1" fill="black"/>
<rect y="366" width="400" height="1" fill="black"/>
<rect y="369" width="400" height="1" fill="black"/>
<rect y="372" width="400" height="1" fill="black"/>
<rect y="375" width="400" height="1" fill="black"/>
<rect y="378" width="400" height="1" fill="black"/>
<rect y="381" width="400" height="1" fill="black"/>
<rect y="384" width="400" height="1" fill="black"/>
<rect y="387" width="400" height="1" fill="black"/>
<rect y="390" width="400" height="1" fill="black"/>
<rect y="393" width="400" height="1" fill="black"/>
<rect y="396" width="400" height="1" fill="black"/>
<rect y="399" width="400" height="1" fill="black"/>
</g>
<defs>
<clipPath id="clip0_1040_6973">
<rect width="400" height="400" rx="200" fill="white"/>
</clipPath>
</defs>
</svg>
