<svg width="400" height="400" viewBox="0 0 400 400" fill="none" xmlns="http://www.w3.org/2000/svg">
<g clip-path="url(#clip0_1040_6684)">
<rect y="400" width="400" height="1" transform="rotate(-90 0 400)" fill="black"/>
<rect x="3" y="400" width="400" height="1" transform="rotate(-90 3 400)" fill="black"/>
<rect x="6" y="400" width="400" height="1" transform="rotate(-90 6 400)" fill="black"/>
<rect x="9" y="400" width="400" height="1" transform="rotate(-90 9 400)" fill="black"/>
<rect x="12" y="400" width="400" height="1" transform="rotate(-90 12 400)" fill="black"/>
<rect x="15" y="400" width="400" height="1" transform="rotate(-90 15 400)" fill="black"/>
<rect x="18" y="400" width="400" height="1" transform="rotate(-90 18 400)" fill="black"/>
<rect x="21" y="400" width="400" height="1" transform="rotate(-90 21 400)" fill="black"/>
<rect x="24" y="400" width="400" height="1" transform="rotate(-90 24 400)" fill="black"/>
<rect x="27" y="400" width="400" height="1" transform="rotate(-90 27 400)" fill="black"/>
<rect x="30" y="400" width="400" height="1" transform="rotate(-90 30 400)" fill="black"/>
<rect x="33" y="400" width="400" height="1" transform="rotate(-90 33 400)" fill="black"/>
<rect x="36" y="400" width="400" height="1" transform="rotate(-90 36 400)" fill="black"/>
<rect x="39" y="400" width="400" height="1" transform="rotate(-90 39 400)" fill="black"/>
<rect x="42" y="400" width="400" height="1" transform="rotate(-90 42 400)" fill="black"/>
<rect x="45" y="400" width="400" height="1" transform="rotate(-90 45 400)" fill="black"/>
<rect x="48" y="400" width="400" height="1" transform="rotate(-90 48 400)" fill="black"/>
<rect x="51" y="400" width="400" height="1" transform="rotate(-90 51 400)" fill="black"/>
<rect x="54" y="400" width="400" height="1" transform="rotate(-90 54 400)" fill="black"/>
<rect x="57" y="400" width="400" height="1" transform="rotate(-90 57 400)" fill="black"/>
<rect x="60" y="400" width="400" height="1" transform="rotate(-90 60 400)" fill="black"/>
<rect x="63" y="400" width="400" height="1" transform="rotate(-90 63 400)" fill="black"/>
<rect x="66" y="400" width="400" height="1" transform="rotate(-90 66 400)" fill="black"/>
<rect x="69" y="400" width="400" height="1" transform="rotate(-90 69 400)" fill="black"/>
<rect x="72" y="400" width="400" height="1" transform="rotate(-90 72 400)" fill="black"/>
<rect x="75" y="400" width="400" height="1" transform="rotate(-90 75 400)" fill="black"/>
<rect x="78" y="400" width="400" height="1" transform="rotate(-90 78 400)" fill="black"/>
<rect x="81" y="400" width="400" height="1" transform="rotate(-90 81 400)" fill="black"/>
<rect x="84" y="400" width="400" height="1" transform="rotate(-90 84 400)" fill="black"/>
<rect x="87" y="400" width="400" height="1" transform="rotate(-90 87 400)" fill="black"/>
<rect x="90" y="400" width="400" height="1" transform="rotate(-90 90 400)" fill="black"/>
<rect x="93" y="400" width="400" height="1" transform="rotate(-90 93 400)" fill="black"/>
<rect x="96" y="400" width="400" height="1" transform="rotate(-90 96 400)" fill="black"/>
<rect x="99" y="400" width="400" height="1" transform="rotate(-90 99 400)" fill="black"/>
<rect x="102" y="400" width="400" height="1" transform="rotate(-90 102 400)" fill="black"/>
<rect x="105" y="400" width="400" height="1" transform="rotate(-90 105 400)" fill="black"/>
<rect x="108" y="400" width="400" height="1" transform="rotate(-90 108 400)" fill="black"/>
<rect x="111" y="400" width="400" height="1" transform="rotate(-90 111 400)" fill="black"/>
<rect x="114" y="400" width="400" height="1" transform="rotate(-90 114 400)" fill="black"/>
<rect x="117" y="400" width="400" height="1" transform="rotate(-90 117 400)" fill="black"/>
<rect x="120" y="400" width="400" height="1" transform="rotate(-90 120 400)" fill="black"/>
<rect x="123" y="400" width="400" height="1" transform="rotate(-90 123 400)" fill="black"/>
<rect x="126" y="400" width="400" height="1" transform="rotate(-90 126 400)" fill="black"/>
<rect x="129" y="400" width="400" height="1" transform="rotate(-90 129 400)" fill="black"/>
<rect x="132" y="400" width="400" height="1" transform="rotate(-90 132 400)" fill="black"/>
<rect x="135" y="400" width="400" height="1" transform="rotate(-90 135 400)" fill="black"/>
<rect x="138" y="400" width="400" height="1" transform="rotate(-90 138 400)" fill="black"/>
<rect x="141" y="400" width="400" height="1" transform="rotate(-90 141 400)" fill="black"/>
<rect x="144" y="400" width="400" height="1" transform="rotate(-90 144 400)" fill="black"/>
<rect x="147" y="400" width="400" height="1" transform="rotate(-90 147 400)" fill="black"/>
<rect x="150" y="400" width="400" height="1" transform="rotate(-90 150 400)" fill="black"/>
<rect x="153" y="400" width="400" height="1" transform="rotate(-90 153 400)" fill="black"/>
<rect x="156" y="400" width="400" height="1" transform="rotate(-90 156 400)" fill="black"/>
<rect x="159" y="400" width="400" height="1" transform="rotate(-90 159 400)" fill="black"/>
<rect x="162" y="400" width="400" height="1" transform="rotate(-90 162 400)" fill="black"/>
<rect x="165" y="400" width="400" height="1" transform="rotate(-90 165 400)" fill="black"/>
<rect x="168" y="400" width="400" height="1" transform="rotate(-90 168 400)" fill="black"/>
<rect x="171" y="400" width="400" height="1" transform="rotate(-90 171 400)" fill="black"/>
<rect x="174" y="400" width="400" height="1" transform="rotate(-90 174 400)" fill="black"/>
<rect x="177" y="400" width="400" height="1" transform="rotate(-90 177 400)" fill="black"/>
<rect x="180" y="400" width="400" height="1" transform="rotate(-90 180 400)" fill="black"/>
<rect x="183" y="400" width="400" height="1" transform="rotate(-90 183 400)" fill="black"/>
<rect x="186" y="400" width="400" height="1" transform="rotate(-90 186 400)" fill="black"/>
<rect x="189" y="400" width="400" height="1" transform="rotate(-90 189 400)" fill="black"/>
<rect x="192" y="400" width="400" height="1" transform="rotate(-90 192 400)" fill="black"/>
<rect x="195" y="400" width="400" height="1" transform="rotate(-90 195 400)" fill="black"/>
<rect x="198" y="400" width="400" height="1" transform="rotate(-90 198 400)" fill="black"/>
<rect x="201" y="400" width="400" height="1" transform="rotate(-90 201 400)" fill="black"/>
<rect x="204" y="400" width="400" height="1" transform="rotate(-90 204 400)" fill="black"/>
<rect x="207" y="400" width="400" height="1" transform="rotate(-90 207 400)" fill="black"/>
<rect x="210" y="400" width="400" height="1" transform="rotate(-90 210 400)" fill="black"/>
<rect x="213" y="400" width="400" height="1" transform="rotate(-90 213 400)" fill="black"/>
<rect x="216" y="400" width="400" height="1" transform="rotate(-90 216 400)" fill="black"/>
<rect x="219" y="400" width="400" height="1" transform="rotate(-90 219 400)" fill="black"/>
<rect x="222" y="400" width="400" height="1" transform="rotate(-90 222 400)" fill="black"/>
<rect x="225" y="400" width="400" height="1" transform="rotate(-90 225 400)" fill="black"/>
<rect x="228" y="400" width="400" height="1" transform="rotate(-90 228 400)" fill="black"/>
<rect x="231" y="400" width="400" height="1" transform="rotate(-90 231 400)" fill="black"/>
<rect x="234" y="400" width="400" height="1" transform="rotate(-90 234 400)" fill="black"/>
<rect x="237" y="400" width="400" height="1" transform="rotate(-90 237 400)" fill="black"/>
<rect x="240" y="400" width="400" height="1" transform="rotate(-90 240 400)" fill="black"/>
<rect x="243" y="400" width="400" height="1" transform="rotate(-90 243 400)" fill="black"/>
<rect x="246" y="400" width="400" height="1" transform="rotate(-90 246 400)" fill="black"/>
<rect x="249" y="400" width="400" height="1" transform="rotate(-90 249 400)" fill="black"/>
<rect x="252" y="400" width="400" height="1" transform="rotate(-90 252 400)" fill="black"/>
<rect x="255" y="400" width="400" height="1" transform="rotate(-90 255 400)" fill="black"/>
<rect x="258" y="400" width="400" height="1" transform="rotate(-90 258 400)" fill="black"/>
<rect x="261" y="400" width="400" height="1" transform="rotate(-90 261 400)" fill="black"/>
<rect x="264" y="400" width="400" height="1" transform="rotate(-90 264 400)" fill="black"/>
<rect x="267" y="400" width="400" height="1" transform="rotate(-90 267 400)" fill="black"/>
<rect x="270" y="400" width="400" height="1" transform="rotate(-90 270 400)" fill="black"/>
<rect x="273" y="400" width="400" height="1" transform="rotate(-90 273 400)" fill="black"/>
<rect x="276" y="400" width="400" height="1" transform="rotate(-90 276 400)" fill="black"/>
<rect x="279" y="400" width="400" height="1" transform="rotate(-90 279 400)" fill="black"/>
<rect x="282" y="400" width="400" height="1" transform="rotate(-90 282 400)" fill="black"/>
<rect x="285" y="400" width="400" height="1" transform="rotate(-90 285 400)" fill="black"/>
<rect x="288" y="400" width="400" height="1" transform="rotate(-90 288 400)" fill="black"/>
<rect x="291" y="400" width="400" height="1" transform="rotate(-90 291 400)" fill="black"/>
<rect x="294" y="400" width="400" height="1" transform="rotate(-90 294 400)" fill="black"/>
<rect x="297" y="400" width="400" height="1" transform="rotate(-90 297 400)" fill="black"/>
<rect x="300" y="400" width="400" height="1" transform="rotate(-90 300 400)" fill="black"/>
<rect x="303" y="400" width="400" height="1" transform="rotate(-90 303 400)" fill="black"/>
<rect x="306" y="400" width="400" height="1" transform="rotate(-90 306 400)" fill="black"/>
<rect x="309" y="400" width="400" height="1" transform="rotate(-90 309 400)" fill="black"/>
<rect x="312" y="400" width="400" height="1" transform="rotate(-90 312 400)" fill="black"/>
<rect x="315" y="400" width="400" height="1" transform="rotate(-90 315 400)" fill="black"/>
<rect x="318" y="400" width="400" height="1" transform="rotate(-90 318 400)" fill="black"/>
<rect x="321" y="400" width="400" height="1" transform="rotate(-90 321 400)" fill="black"/>
<rect x="324" y="400" width="400" height="1" transform="rotate(-90 324 400)" fill="black"/>
<rect x="327" y="400" width="400" height="1" transform="rotate(-90 327 400)" fill="black"/>
<rect x="330" y="400" width="400" height="1" transform="rotate(-90 330 400)" fill="black"/>
<rect x="333" y="400" width="400" height="1" transform="rotate(-90 333 400)" fill="black"/>
<rect x="336" y="400" width="400" height="1" transform="rotate(-90 336 400)" fill="black"/>
<rect x="339" y="400" width="400" height="1" transform="rotate(-90 339 400)" fill="black"/>
<rect x="342" y="400" width="400" height="1" transform="rotate(-90 342 400)" fill="black"/>
<rect x="345" y="400" width="400" height="1" transform="rotate(-90 345 400)" fill="black"/>
<rect x="348" y="400" width="400" height="1" transform="rotate(-90 348 400)" fill="black"/>
<rect x="351" y="400" width="400" height="1" transform="rotate(-90 351 400)" fill="black"/>
<rect x="354" y="400" width="400" height="1" transform="rotate(-90 354 400)" fill="black"/>
<rect x="357" y="400" width="400" height="1" transform="rotate(-90 357 400)" fill="black"/>
<rect x="360" y="400" width="400" height="1" transform="rotate(-90 360 400)" fill="black"/>
<rect x="363" y="400" width="400" height="1" transform="rotate(-90 363 400)" fill="black"/>
<rect x="366" y="400" width="400" height="1" transform="rotate(-90 366 400)" fill="black"/>
<rect x="369" y="400" width="400" height="1" transform="rotate(-90 369 400)" fill="black"/>
<rect x="372" y="400" width="400" height="1" transform="rotate(-90 372 400)" fill="black"/>
<rect x="375" y="400" width="400" height="1" transform="rotate(-90 375 400)" fill="black"/>
<rect x="378" y="400" width="400" height="1" transform="rotate(-90 378 400)" fill="black"/>
<rect x="381" y="400" width="400" height="1" transform="rotate(-90 381 400)" fill="black"/>
<rect x="384" y="400" width="400" height="1" transform="rotate(-90 384 400)" fill="black"/>
<rect x="387" y="400" width="400" height="1" transform="rotate(-90 387 400)" fill="black"/>
<rect x="390" y="400" width="400" height="1" transform="rotate(-90 390 400)" fill="black"/>
<rect x="393" y="400" width="400" height="1" transform="rotate(-90 393 400)" fill="black"/>
<rect x="396" y="400" width="400" height="1" transform="rotate(-90 396 400)" fill="black"/>
<rect x="399" y="400" width="400" height="1" transform="rotate(-90 399 400)" fill="black"/>
</g>
<defs>
<clipPath id="clip0_1040_6684">
<rect y="400" width="400" height="400" rx="200" transform="rotate(-90 0 400)" fill="white"/>
</clipPath>
</defs>
</svg>
